<svg xmlns="http://www.w3.org/2000/svg" viewBox="0 0 487.34 56.26"><g id="Layer_2" data-name="Layer 2"><g id="Layer_2-2" data-name="Layer 2"><path d="M0,43.72v-12H6v-6h6v-6H6v-6H0v-12H12v12h6v6h6v-6h6v-12H42v12H36v6H30v6h6v6h6v12H30v-12H24v-6H18v6H12v12Z"/><path d="M69,43.45V1.69h9.64V35H98.83v8.47Z"/><path d="M132.71,35v8.47H103.36V1.69h28.83v8.47H113v8.11h16.47V26.1H113V35Z"/><path d="M144.66,1.69l9.11,14.41,9.12-14.41H173.3L158.83,22.86l14,20.59H162.42l-8.65-13.82-8.64,13.82H134.66l14-20.59L134.19,1.69Z"/><path d="M176.89,43.45V1.69h9.65V43.45Z"/><path d="M223.89,35v8.47H194.54V1.69h28.82v8.47H204.19v8.11h16.47V26.1H204.19V35Z"/><path d="M259.66,1.69,231.89,43.45h-4.53L255.13,1.69Z"/><path d="M277.21,44.27a12.56,12.56,0,0,1-7-2,15.94,15.94,0,0,1-4.89-5V56.26h-4.08V12.93h3.66v6a15,15,0,0,1,5-4.69,12.9,12.9,0,0,1,6.66-1.8,13.34,13.34,0,0,1,5.94,1.32,15.27,15.27,0,0,1,4.68,3.55,16.76,16.76,0,0,1,4.2,11.06,18.27,18.27,0,0,1-1,6.14,15.64,15.64,0,0,1-2.91,5.08,13.82,13.82,0,0,1-4.5,3.45A12.87,12.87,0,0,1,277.21,44.27Zm-1.14-3.54a9.88,9.88,0,0,0,4.59-1.06,11.3,11.3,0,0,0,3.54-2.81,12.56,12.56,0,0,0,2.25-4,13.69,13.69,0,0,0,.78-4.58,12.58,12.58,0,0,0-.9-4.72,13,13,0,0,0-2.46-3.95,11.71,11.71,0,0,0-3.69-2.72,10.62,10.62,0,0,0-4.59-1,9.43,9.43,0,0,0-3.27.62,13.34,13.34,0,0,0-3.18,1.65,11.37,11.37,0,0,0-2.52,2.42,6.5,6.5,0,0,0-1.29,2.92V33a14.24,14.24,0,0,0,1.83,3.07,13,13,0,0,0,2.52,2.45,12,12,0,0,0,3,1.62A9.82,9.82,0,0,0,276.07,40.73Z"/><path d="M311.59,44.27A15,15,0,0,1,305.35,43a15.17,15.17,0,0,1-4.89-3.45,15.67,15.67,0,0,1-3.21-5.08,16.74,16.74,0,0,1,0-12.22,16,16,0,0,1,3.24-5.07,15.56,15.56,0,0,1,4.89-3.48,14.53,14.53,0,0,1,6.18-1.3,14.73,14.73,0,0,1,6.21,1.3,15.47,15.47,0,0,1,4.92,3.48A16,16,0,0,1,326,22.25a16.74,16.74,0,0,1,0,12.22,15.67,15.67,0,0,1-3.21,5.08,15.17,15.17,0,0,1-11.19,4.72ZM300.25,28.45a12.63,12.63,0,0,0,.9,4.81,13,13,0,0,0,2.43,3.9,11,11,0,0,0,3.6,2.63,10.49,10.49,0,0,0,4.41.94,10.22,10.22,0,0,0,4.41-1,11.75,11.75,0,0,0,3.63-2.66,12.64,12.64,0,0,0,2.46-3.92,13.41,13.41,0,0,0,0-9.66,12.56,12.56,0,0,0-2.46-3.95A11.75,11.75,0,0,0,316,16.91a10.22,10.22,0,0,0-4.41-1,10,10,0,0,0-4.38,1,11.64,11.64,0,0,0-3.6,2.69,12.93,12.93,0,0,0-2.46,4A13.13,13.13,0,0,0,300.25,28.45Z"/><path d="M349.58,16.47a13,13,0,0,0-7.21,2.24,11.35,11.35,0,0,0-4.32,5.85V43.68H334V12.93h3.84v7.38a14,14,0,0,1,4.68-5.55,11,11,0,0,1,6.3-2,4.3,4.3,0,0,1,.79.06Z"/><path d="M370,42.21l-1.05.47c-.46.2-1,.39-1.59.59a18.72,18.72,0,0,1-2,.53A11.63,11.63,0,0,1,363,44a8.72,8.72,0,0,1-2.52-.36,5.84,5.84,0,0,1-2.1-1.09,5.35,5.35,0,0,1-1.44-1.86,5.92,5.92,0,0,1-.54-2.6v-22H352V12.93h4.32V2.54h4.08V12.93h7.2v3.19h-7.2V37a3.17,3.17,0,0,0,1.23,2.51,4.27,4.27,0,0,0,2.55.8,7.84,7.84,0,0,0,3.06-.56A14,14,0,0,0,369,39Z"/><path d="M376.64,43.68V16.12h-4.32V12.93h4.32V12.1q0-5.67,2.46-8.88A8,8,0,0,1,385.82,0a12.4,12.4,0,0,1,3.6.53,10.7,10.7,0,0,1,3,1.42l-1.26,2.89a6,6,0,0,0-2.07-1,8.82,8.82,0,0,0-2.49-.36,5,5,0,0,0-4.38,2.19,11.1,11.1,0,0,0-1.5,6.31v.95h8.64v3.19h-8.64V43.68Z"/><path d="M406.7,44.27A15,15,0,0,1,400.46,43a15.17,15.17,0,0,1-4.89-3.45,15.67,15.67,0,0,1-3.21-5.08,16.74,16.74,0,0,1,0-12.22,16,16,0,0,1,3.24-5.07,15.56,15.56,0,0,1,4.89-3.48,14.53,14.53,0,0,1,6.18-1.3,14.73,14.73,0,0,1,6.21,1.3,15.47,15.47,0,0,1,4.92,3.48,16,16,0,0,1,3.24,5.07,16.74,16.74,0,0,1,0,12.22,15.67,15.67,0,0,1-3.21,5.08,15.17,15.17,0,0,1-11.19,4.72ZM395.36,28.45a12.63,12.63,0,0,0,.9,4.81,13,13,0,0,0,2.43,3.9,11,11,0,0,0,3.6,2.63,10.49,10.49,0,0,0,4.41.94,10.22,10.22,0,0,0,4.41-1,11.75,11.75,0,0,0,3.63-2.66,12.64,12.64,0,0,0,2.46-3.92,13.41,13.41,0,0,0,0-9.66,12.56,12.56,0,0,0-2.46-3.95,11.75,11.75,0,0,0-3.63-2.66,10.22,10.22,0,0,0-4.41-1,10,10,0,0,0-4.38,1,11.64,11.64,0,0,0-3.6,2.69,12.93,12.93,0,0,0-2.46,4A13.13,13.13,0,0,0,395.36,28.45Z"/><path d="M429.26.59h4.08V36.72A3.36,3.36,0,0,0,437,40.38a8.11,8.11,0,0,0,1.56-.18,11.41,11.41,0,0,0,1.68-.47L441,43a13.51,13.51,0,0,1-2.79.77,16.26,16.26,0,0,1-2.85.3,6.1,6.1,0,0,1-4.44-1.57,5.83,5.83,0,0,1-1.62-4.4Z"/><path d="M445.4,6.49V.59h4.08v5.9Zm0,37.19V12.93h4.08V43.68Z"/><path d="M471.8,44.27A15,15,0,0,1,465.56,43a15.17,15.17,0,0,1-4.89-3.45,15.67,15.67,0,0,1-3.21-5.08,16.74,16.74,0,0,1,0-12.22,16,16,0,0,1,3.24-5.07,15.56,15.56,0,0,1,4.89-3.48,14.53,14.53,0,0,1,6.18-1.3A14.73,14.73,0,0,1,478,13.7a15.47,15.47,0,0,1,4.92,3.48,16,16,0,0,1,3.24,5.07,16.74,16.74,0,0,1,0,12.22A15.67,15.67,0,0,1,483,39.55a15.17,15.17,0,0,1-11.19,4.72ZM460.46,28.45a12.63,12.63,0,0,0,.9,4.81,13,13,0,0,0,2.43,3.9,11,11,0,0,0,3.6,2.63,10.49,10.49,0,0,0,4.41.94,10.22,10.22,0,0,0,4.41-1,11.75,11.75,0,0,0,3.63-2.66,12.64,12.64,0,0,0,2.46-3.92,13.41,13.41,0,0,0,0-9.66,12.56,12.56,0,0,0-2.46-3.95,11.75,11.75,0,0,0-3.63-2.66,10.22,10.22,0,0,0-4.41-1,10,10,0,0,0-4.38,1,11.64,11.64,0,0,0-3.6,2.69,12.93,12.93,0,0,0-2.46,4A13.13,13.13,0,0,0,460.46,28.45Z"/></g></g></svg>